# xmcd
#
# Track frame offsets: 
#        183
#        21755
#        39333
#        59000
#        77790
#        96513
#        113733
#        129008
#        147905
#        173858
#        195495
#        218660
#        238398
#
# Disc length: 3448 seconds
#
# Revision: 0
# Processed by: cddbd v1.5.2PL0 Copyright (c) Steve Scherf et al.
# Submitted via: ExactAudioCopy v1.3
#
DISCID=b30d760d
DTITLE=Pretty In Pink - Wake Up
DYEAR=1991
DGENRE=R&B
TTITLE0=Boys Do Lie
TTITLE1=All About You
TTITLE2=Girls Night Out
TTITLE3=I Wanna Be Your Girlfriend
TTITLE4=Kiss and Tell
TTITLE5=Two Hearts, One Love
TTITLE6=Home By Midnight
TTITLE7=Boy Is Mine
TTITLE8=Dreams
TTITLE9=Wake Up Everybody
TTITLE10=All About You (House Version)
TTITLE11=Restin' My Love
TTITLE12=Boy I Think You're Cute
EXTD=
EXTT0=
EXTT1=
EXTT2=
EXTT3=
EXTT4=
EXTT5=
EXTT6=
EXTT7=
EXTT8=
EXTT9=
EXTT10=
EXTT11=
EXTT12=
PLAYORDER=
